<?xml version="1.0" encoding="UTF-8"?><svg id="Livello_2" xmlns="http://www.w3.org/2000/svg" viewBox="0 0 386.71 866.16"><defs><style>.cls-1{fill:#fff;}.cls-2{fill:#e5292a;}.cls-3{fill:#575756;}</style></defs><path class="cls-2" d="m263.74,247.02c-6.52,5.53-13.03,11.05-19.51,16.54-8.48,6.63-17.01,13.29-28.85,22.55,7.5.55,10.1.75,12.7.94,20.23,6.04,40.45,12.09,60.68,18.13-.19,1.6-.37,3.2-.56,4.79-6.82-.07-13.63-.15-20.45-.22,26.6,16,48.24,36.3,62.29,63.41,6.85,13.21,11.33,27.83,15.47,42.22,5.61,19.54,11.24,39.26,14.3,59.3,2.97,19.47,3.44,39.43,3.72,59.19.6,42.17.22,84.36.68,126.54.05,4.73,1.94,10.13,4.66,14.05,23.03,33.13,23.64,63.62,2.59,98.26-3.75,6.17-4.08,14.45-5.76,21.81-.52,2.27.6,5.26-.49,6.99-12.29,19.4-22.21,40.97-46.93,48.69-12.99,4.06-25.61,9.34-38.28,14.4-11.61,4.63-33.43-1.61-41.96-10.7-4.28-4.56-10.9-8.66-16.96-9.55-30.82-4.52-59.09-14.81-82.61-35.52-24.44-21.53-33.91-48.3-26.14-80.85,1.47-6.16.02-13.85-2.36-19.95-17.78-45.46-37.73-90.14-53.77-136.19-11.22-32.2-17.9-66.04-25.34-99.43-1.94-8.73,1.95-18.62,1.09-27.78-.55-5.8-4.94-11.23-8.39-18.47,2.08-.22,6.69-.71,11.15-1.19,12.11-31.25,11.82-63.35,4.05-95.68-9.54-39.68-18.86-79.42-29.12-118.92C-4.48,156-3.23,102.27,14.31,48.93c.73-2.22,1.89-4.36,3.14-6.35,8.79-13.99,15.95-31.33,35.69-31.03,19.63.3,29.26,16.22,37.51,31.29,28.38,51.8,34.62,107.8,30.14,165.7-2.22,28.66-4.04,57.35-6.25,88.89,15.05-20.85,28.06-38.88,41.08-56.91,1.54.8,3.07,1.6,4.61,2.4-1.91,8.88-3.82,17.77-5.78,26.89,20.98-1.9,26.23-6.26,30.04-24.74,7.4-35.81,14.15-71.77,22.22-107.43,10.07-44.44,29.69-84.11,62.66-116.3,5.71-5.57,12.29-10.56,19.21-14.53,24.81-14.27,44.82-5.7,52.04,21.97,10.52,40.38,5.11,79.94-11.87,116.83-13.01,28.27-30.99,54.3-47.44,80.9-4.71,7.62-11.77,13.8-17.8,20.69"/><path class="cls-3" d="m249.73,828.14c57.36-11.64,94.38-38.56,111.55-72.51,11.61-22.96,13.08-45.96-3.29-67.12-20.34-26.29-45.48-47.31-75.98-60.98-40.68-18.22-81.59-10.36-109.1,24.75-16.43,20.96-29.43,45.41-39.93,70.02-14.38,33.67-5.19,59.64,24.94,80.52,32.89,22.81,69.39,29.62,91.82,25.31Z"/><path class="cls-3" d="m242.45,515.79c4.01,7.05,10.92,21.03,19.57,33.82,6.92,10.23,18.55,13.35,29.04,7.06,14.88-8.91,29.72-18.75,42.08-30.76,12.9-12.52,10.39-26.74-2.13-40.26-13.87-14.99-31.99-19.91-50.92-21.78-28.64-2.83-44.75,16.05-37.64,51.92Z"/><path class="cls-3" d="m141.73,587.87c12.89-4.06,21.69-10.02,23.97-23.2,3.79-21.91-.44-42.19-13.52-60.24-9.85-13.59-22-16.79-37.42-10.39-22.98,9.54-33.82,29.3-41.02,51.18-5.87,17.83,1.11,31.76,19.24,36.31,15.79,3.96,32.46,4.37,48.75,6.34Z"/><path class="cls-1" d="m54.79,64.98c-23.76,45.06-16.34,135.91,16.81,215.15,19.35-72.66,11.37-178.22-16.81-215.15Z"/><path class="cls-1" d="m303.38,52.27c-9.2,9.29-16.05,15.55-22.16,22.47-42.14,47.7-43.7,109.19-56.64,166.84,38.23-56.56,82.44-110.57,78.8-189.32Z"/><path class="cls-3" d="m327.84,815.08c-5.39,3.1-10.85,6.24-17.45,10.03,2.9,4.82,5.15,8.55,7.37,12.23,17.86-9.89,17.89-9.96,10.08-22.26Z"/><path class="cls-3" d="m274.42,855.63c-1.6-7.9-2.39-11.78-3.38-16.66-7.75,1.57-14.73,2.99-21.71,4.41-.35,1.55-.7,3.1-1.05,4.65,7.75,2.25,15.51,4.51,26.15,7.6Z"/><path class="cls-3" d="m304.33,833.55c-2.34-1.68-4.68-3.36-7.02-5.04-4.6,4.47-9.2,8.95-13.8,13.42,4.5.84,9.64,3.38,13.31,2,3.33-1.25,5.07-6.76,7.51-10.38Z"/><path class="cls-1" d="m249.73,828.14c-22.43,4.3-58.93-2.51-91.82-25.31-30.13-20.89-39.32-46.86-24.94-80.52,10.51-24.6,23.51-49.06,39.93-70.02,27.51-35.11,68.42-42.97,109.1-24.75,30.5,13.66,55.64,34.68,75.98,60.98,16.37,21.16,14.91,44.16,3.29,67.12-17.17,33.95-54.2,60.87-111.55,72.51Zm-36.09-29.51c-14.26-20.11-25.64-37.42-38.4-53.63-6.14-7.8-15.37-14.56-26.04-8.58-10.53,5.9-11.32,17.1-9.25,27.7,1.13,5.8,3.78,12.03,7.62,16.44,13.68,15.7,32.14,23.09,52.19,26.19,3.26.5,7.3-4.1,13.88-8.12Zm148.16-80.51c-6.81-6.62-12.98-15.36-21.4-19.49-3.61-1.77-16.01,4.84-17.4,9.67-6.34,22-11.01,44.58-14.5,67.23-1.36,8.81,6.25,12.41,12.91,6.03,12.14-11.64,23.87-23.97,33.89-37.41,4.33-5.81,3.99-15.11,6.5-26.02Zm-200.72-6.27c15.84,12.34,32.86,25.61,47.18,36.76-7.18-25.8-27.46-41.42-47.18-36.76Zm156.4-31.73c-20.43,4.42-34.26,30.4-28.65,51.49,8.68-15.6,18.97-34.1,28.65-51.49Z"/><path class="cls-1" d="m242.45,515.79c-7.11-35.87,9-54.76,37.64-51.92,18.93,1.87,37.05,6.8,50.92,21.78,12.52,13.52,15.02,27.74,2.13,40.26-12.36,12.01-27.2,21.85-42.08,30.76-10.49,6.28-22.12,3.17-29.04-7.06-8.65-12.79-15.55-26.77-19.57-33.82Zm38.51-20.52c-13.54,4.63-12.45,16.09-7.61,24.94,2.85,5.22,13.06,9.88,19.2,9.07,10.94-1.45,15.91-10.19,13.74-20.16-7.5,1.01-14.32,3.56-19.99,1.98-2.73-.76-3.31-9.28-5.35-15.82Z"/><path class="cls-1" d="m141.73,587.87c-16.28-1.98-32.96-2.38-48.75-6.34-18.14-4.55-25.11-18.48-19.24-36.31,7.2-21.88,18.04-41.64,41.02-51.18,15.42-6.4,27.57-3.2,37.42,10.39,13.08,18.06,17.31,38.33,13.52,60.24-2.28,13.19-11.07,19.15-23.97,23.2Zm-25.03-58.86c-11.59,5.87-14.79,14.71-9.94,22.2,3.84,5.94,12.94,11.41,19.9,11.67,9.52.36,15.45-7.32,15.09-19.52-15.28,8.01-23.01,2.22-25.06-14.35Z"/><path class="cls-1" d="m327.84,815.08c7.81,12.31,7.78,12.37-10.08,22.26-2.22-3.68-4.47-7.42-7.37-12.23,6.6-3.79,12.06-6.93,17.45-10.03Z"/><path class="cls-1" d="m274.42,855.63c-10.64-3.09-18.4-5.35-26.15-7.6.35-1.55.7-3.1,1.05-4.65,6.98-1.42,13.96-2.83,21.71-4.41.99,4.89,1.78,8.77,3.38,16.66Z"/><path class="cls-1" d="m304.33,833.55c-2.44,3.63-4.18,9.14-7.51,10.38-3.67,1.37-8.81-1.17-13.31-2,4.6-4.47,9.2-8.95,13.8-13.42,2.34,1.68,4.68,3.36,7.02,5.04Z"/><g><path class="cls-2" d="m213.64,798.63c-6.58,4.02-10.63,8.62-13.88,8.12-20.05-3.09-38.51-10.49-52.19-26.19-3.84-4.4-6.49-10.64-7.62-16.44-2.07-10.6-1.27-21.8,9.25-27.7,10.67-5.98,19.9.78,26.04,8.58,12.76,16.21,24.14,33.51,38.4,53.63Z"/><path class="cls-2" d="m361.8,718.12c-2.52,10.92-2.17,20.21-6.5,26.02-10.02,13.44-21.75,25.77-33.89,37.41-6.65,6.38-14.26,2.78-12.91-6.03,3.49-22.65,8.16-45.23,14.5-67.23,1.39-4.83,13.79-11.44,17.4-9.67,8.42,4.14,14.59,12.88,21.4,19.49Z"/><path class="cls-2" d="m161.08,711.85c19.73-4.65,40.01,10.97,47.18,36.76-14.32-11.16-31.35-24.43-47.18-36.76Z"/><path class="cls-2" d="m317.48,680.13c-9.68,17.39-19.97,35.89-28.65,51.49-5.61-21.09,8.22-47.07,28.65-51.49Z"/><path class="cls-2" d="m280.96,495.26c2.03,6.54,2.61,15.06,5.35,15.82,5.67,1.57,12.48-.97,19.99-1.98,2.17,9.97-2.81,18.71-13.74,20.16-6.14.81-16.35-3.85-19.2-9.07-4.83-8.85-5.93-20.31,7.61-24.94Z"/><path class="cls-2" d="m116.7,529.01c2.05,16.57,9.77,22.36,25.06,14.35.36,12.2-5.57,19.89-15.09,19.52-6.97-.26-16.06-5.74-19.9-11.67-4.85-7.49-1.65-16.33,9.94-22.2Z"/></g></svg>