<svg id="Livello_2" data-name="Livello 2" xmlns="http://www.w3.org/2000/svg" viewBox="0 0 1080 511.66"><defs><style>.cls-1{fill:#e52d2c;}.cls-2,.cls-3{fill:#fff;}.cls-3{font-size:105.8px;font-family:Signo-Bold, Signo;font-weight:700;}</style></defs><rect class="cls-1" width="1080" height="511.66"/><path class="cls-2" d="M156.8,137.5c-16.64-3.36-29.92-5.15-39.82-5.15-6.34,0-10.9.8-13.87,2.18-3.17,1.59-4.75,4.36-4.75,8.52a6.91,6.91,0,0,0,4.36,6.93c2.77,1.39,9.11,3,19,5.16,12.88,3,18.82,4.16,27.34,7.92a35.74,35.74,0,0,1,9.71,6.34c4.36,4.75,7.53,11.89,7.53,22q0,25-19,39.82c-10.9,8.52-25,12.87-42.4,12.87-17.23,0-31.69-3.56-43.38-10.89l3.17-29.12c16.64,4.55,31.1,6.93,43.38,6.93,7.33,0,12.68-.79,15.65-2.57a8.74,8.74,0,0,0,5-8.32c0-4.16-2-6.34-5.75-8.32-2-1-7.92-2.58-11.09-3.37-1.59-.2-4.16-.79-7.93-1.59-14.26-3-22-5.35-30.5-11.09-8.72-5.55-12.49-14.46-12.49-27.34,0-14.07,4.76-26.15,14.27-35.86,10.89-11.09,25.16-16.64,43-16.64a82.59,82.59,0,0,1,41.4,11.1Z"/><path class="cls-2" d="M293.09,231.6c-13.67,8.32-29.71,12.48-48.34,12.48q-34.17,0-51.7-21.39c-10.9-13.27-16.25-30.11-16.25-50.12,0-22,6.74-40,20.21-54.28,14.07-14.86,31.9-22.39,53.69-22.39a73.9,73.9,0,0,1,40.81,11.69l-3.37,31.1A139.54,139.54,0,0,0,249.51,133c-12.88,0-22,2.77-27.54,8.12-5.74,5.55-8.52,14.46-8.52,26.94,0,14.07,3,24.77,9.12,32.1S237.82,211,250.1,211a44.46,44.46,0,0,0,7.73-.59v-4.56c0-3.76.2-8.72.39-15.06q-8.31.6-22.58.6l1.19-32.49c27.14,0,45.76.2,56.06.4.2,8.12.2,23.57.2,46.55Z"/><path class="cls-2" d="M409.17,203.08l23.38,38.83H387.38L372.72,210.6l-7.92-17.23c-5.75,0-9.71,0-12.08-.2v48.74H316.26V98.68q19.92-.6,44-.6h9.51c19.42,0,33.48,3.57,42.4,10.5,9.31,7.53,13.86,18.62,13.86,33.08,0,19.81-9.31,36.65-27.33,44.38Zm-42.59-69.14c-6.54,0-11.09,0-14.06-.2.2,3.17.2,8.72.2,16.44v13.87c5.94,0,11.49,0,16.64-.2,9.31-.2,14.85-1.38,16.83-3.37,2.18-2.18,3.17-5.54,3.17-10.1,0-6.93-1.58-11.49-4.95-13.67-2.77-1.78-7.92-2.77-15.25-2.77Z"/><path class="cls-2" d="M577,241.91H533.78l-7.33-28.73c-7.93.2-15.26.4-22,.4-5.35,0-12.28-.2-20.41-.4l-7.33,28.73H435.91L484.85,98.08H528Zm-84.79-59.63h26.34L514,165c-5.55-21.59-8.52-33.08-8.72-34.47h-.4c-3,12.88-5.54,24-8.12,33.68Z"/><path class="cls-2" d="M626.68,241.91H591.82V98.08H635c20.81,40.22,34.67,69.54,41.21,87.76h.4c-.4-11.09-.8-26.94-1-47.74l-.4-40h34.87V241.91H673.24c-21.79-36.26-37.84-65.78-47.94-88.16h-.4c.79,18.42,1.19,35.26,1.39,50.71Z"/><path class="cls-2" d="M866,241.91H822.8l-7.33-28.73c-7.92.2-15.25.4-22,.4-5.35,0-12.28-.2-20.4-.4l-7.33,28.73H724.94L773.87,98.08h43.19ZM781.2,182.28h26.35L803,165c-5.55-21.59-8.52-33.08-8.72-34.47h-.39c-3,12.88-5.55,24-8.12,33.68Z"/><path class="cls-2" d="M973.75,203.08l23.38,38.83H952L937.3,210.6l-7.92-17.23c-5.75,0-9.71,0-12.09-.2v48.74H880.84V98.68q19.9-.6,44-.6h9.51c19.41,0,33.48,3.57,42.39,10.5,9.31,7.53,13.87,18.62,13.87,33.08,0,19.81-9.31,36.65-27.34,44.38Zm-42.59-69.14c-6.54,0-11.09,0-14.06-.2.19,3.17.19,8.72.19,16.44v13.87c6,0,11.49,0,16.64-.2,9.31-.2,14.86-1.38,16.84-3.37,2.18-2.18,3.17-5.54,3.17-10.1,0-6.93-1.58-11.49-5-13.67-2.78-1.78-7.93-2.77-15.26-2.77Z"/><text class="cls-3" transform="translate(54.97 330.07)"> </text><path class="cls-2" d="M254.66,407.14c-12.29,8.92-26.75,13.28-43.39,13.28-20.8,0-37.05-7.13-48.54-21.2-10.69-13.27-16-30.11-16-50.91,0-22.39,6.34-40.61,19.21-54.68q19.62-21.39,51.11-21.4a67.69,67.69,0,0,1,36.85,10.7l-3,31.1a127.23,127.23,0,0,0-33.28-4.75c-12.48,0-21.2,2.58-26.55,7.92-5.15,5.16-7.72,13.67-7.72,25.36q0,21.1,9.51,32.09c6.73,7.93,16.84,11.89,30.5,11.89a70.75,70.75,0,0,0,29.13-6.34Z"/><path class="cls-2" d="M282.19,399c-9.71-12.68-14.66-29.32-14.66-49.92,0-21.4,5.15-39,15.65-53.09,11.88-15.85,28.92-23.78,50.91-23.78,19.21,0,34.27,6.15,45.17,18.63,10.5,12.08,15.85,28.92,15.85,50.51s-5.35,39.43-16.05,53.89c-12.48,16.84-29.52,25.16-50.72,25.16C308.53,420.42,293.08,413.29,282.19,399Zm71.11-22c3.37-5.74,5.16-15,5.16-27.73q0-22-7.73-31.5c-4.75-5.94-11.89-8.92-21.2-8.92s-15.85,3-19.81,8.72c-3.76,5.35-5.55,14.07-5.55,26.15,0,14.46,2.58,25.56,7.53,32.89,4.76,6.93,11.89,10.3,21.4,10.3C342.81,386.94,349.54,383.57,353.3,377Z"/><path class="cls-2" d="M512.18,418.24H473c-25.95,0-45.16-.2-57.84-.6V274.41h37.24v72.71c0,19.21,0,31.89-.2,38,12.29-.39,22.79-.59,31.3-.59h28.73Z"/><path class="cls-2" d="M624.5,418.24H585.27c-25.95,0-45.16-.2-57.84-.6V274.41h37.24v72.71c0,19.21,0,31.89-.2,38,12.29-.39,22.78-.59,31.3-.59H624.5Z"/><path class="cls-2" d="M677,418.24H639.75V274.41H677Z"/><path class="cls-2" d="M77.43,403.84c0-8.89,1.59-15.13,4.84-18.74,3.43-4,8.45-5.9,15-5.9,7.66,0,13.64,2.46,18,7.48,4,4.67,6.07,11,6.07,18.92,0,2.73,0,4.67-.09,6h20.16v16.46H77.7q-.27-10.69-.27-19.54Zm29.92,7.75c0-2.91,0-5.37-.08-7.48-.09-3.26-.09-4-.53-5.46a4,4,0,0,0-1.15-1.85,6.58,6.58,0,0,0-4.57-1.32c-2.91,0-4.84.71-6,2.2-1,1.23-1.4,3.7-1.4,7.48v.8c0,2.55,0,4.4-.09,5.72,1.32-.09,3.34-.09,6.07-.09Z"/><path class="cls-2" d="M141.33,327.18v17.69c0,10.21-.09,18.84-.27,25.79H77.7c-.18-5.72-.27-14.52-.27-26.31V327.8H93.89v12.32q0,5.81-.26,14.52c1.67-.08,4-.08,7.21-.08h1.59c-.09-1.68-.18-5.55-.27-11.71L102,331.14l15.22.44L117,342.85c-.09,6.25-.18,10.12-.27,11.71h2.47c3.25,0,5.63,0,7.3.08-.09-3.78-.18-8.45-.18-14.17V327.18Z"/><path class="cls-2" d="M124.08,276.66l17.25-10.38v20.07l-13.91,6.51-7.66,3.52c0,2.55,0,4.31-.08,5.37h21.65v16.19H77.7q-.27-8.85-.27-19.54v-4.22c0-8.63,1.59-14.88,4.67-18.84,3.34-4.13,8.27-6.16,14.69-6.16,8.8,0,16.29,4.14,19.72,12.15ZM93.36,295.59c0,2.9,0,4.93-.09,6.25,1.41-.09,3.88-.09,7.31-.09h6.16c0-2.64,0-5.11-.09-7.4-.09-4.13-.62-6.6-1.5-7.48a6.12,6.12,0,0,0-4.48-1.41c-3.08,0-5.11.71-6.08,2.21-.79,1.23-1.23,3.52-1.23,6.77Z"/><path class="cls-2" d="M1009.33,411.75c3-10.11,6-20.11,9-30.09.69-2.28,3.09-5.28,5.14-5.68,7.83-1.53,9.91-7.34,11.7-13.67,3.61-12.68,7.28-25.34,10.72-38.06.52-1.93,0-4.14-.08-6.22l-2.75-.53q-6,18-12.1,36l-4-1.19q4.42-18.19,8.84-36.37l-3.67-.8q-5.89,17.65-11.77,35.3l-4-1.37,9.15-36.64-3.83-.83q-5.91,17.88-11.8,35.76l-4-1.26,9-35.94-4.3-1.06q-6.52,21.57-13,43.14c-1.92,6.37-2.78,12.29,3.1,17.67,1.65,1.52,1.77,6,1,8.65-2.68,9.53-5.47,19-8.26,28.54a184.86,184.86,0,0,0-20-3.76V309.06l-25.41-53.51-27.11,53.51V403.7q-5.94.89-11.74,2.14c-.1-.46-.19-.92-.28-1.38-2-9.13-6.46-21.14-13.54-25-16.3-9-19.78-22.68-21.41-38.46-.55-5.27-.08-10.67-.86-15.88-.48-3.16-2.55-8.71-3.79-8.68a52.44,52.44,0,0,0-17.57,3.41c-1.33.52-1.36,6.48-.68,9.66,2.35,11,6,21.83,7.66,33a22.19,22.19,0,0,1-4,15c-8.3,11.12-13.16,22.58-10.51,36.73q1.64,8.75,3.21,17.49A162.14,162.14,0,0,0,797,484.15a138.63,138.63,0,0,0-76.44,27.51H1080V457.33A172.81,172.81,0,0,0,1009.33,411.75Zm-61-73.78a14.46,14.46,0,1,1,14.46-14.45A14.45,14.45,0,0,1,948.35,338Z"/></svg>